HIERARCHY
ROOT hip
{
  OFFSET 0 0 0
  CHANNELS 6 Xposition Yposition Zposition Zrotation Yrotation Xrotation
  JOINT abdomen
  {
    OFFSET 0 20.6881 -0.73152
    CHANNELS 3 Zrotation Xrotation Yrotation
    JOINT chest
    {
      OFFSET 0 11.7043 -0.48768
      CHANNELS 3 Zrotation Xrotation Yrotation
      JOINT neck
      {
        OFFSET 0 22.1894 -2.19456
        CHANNELS 3 Zrotation Xrotation Yrotation
        JOINT head
        {
          OFFSET -0.24384 7.07133 1.2192
          CHANNELS 3 Zrotation Xrotation Yrotation
          JOINT leftEye
          {
            OFFSET 4.14528 8.04674 8.04672
            CHANNELS 3 Zrotation Xrotation Yrotation
            End Site
            {
              OFFSET 1 0 0
            }
          }
          JOINT rightEye
          {
            OFFSET -3.6576 8.04674 8.04672
            CHANNELS 3 Zrotation Xrotation Yrotation
            End Site
            {
              OFFSET 1 0 0
            }
          }
        }
      }
      JOINT rCollar
      {
        OFFSET -2.68224 19.2634 -4.8768
        CHANNELS 3 Zrotation Xrotation Yrotation
        JOINT rShldr
        {
          OFFSET -8.77824 -1.95073 1.46304
          CHANNELS 3 Zrotation Xrotation Yrotation
          JOINT rForeArm
          {
            OFFSET -28.1742 -1.7115 0.48768
            CHANNELS 3 Zrotation Xrotation Yrotation
            JOINT rHand
            {
              OFFSET -22.5879 0.773209 7.07136
              CHANNELS 3 Zrotation Xrotation Yrotation
              JOINT rThumb1
              {
                OFFSET -1.2192 -0.487915 3.41376
                CHANNELS 3 Zrotation Xrotation Yrotation
                JOINT rThumb2
                {
                  OFFSET -3.37035 -0.52449 3.41376
                  CHANNELS 3 Zrotation Xrotation Yrotation
                  End Site
                  {
                    OFFSET -1.78271 -1.18214 1.43049
                  }
                }
              }
              JOINT rIndex1
              {
                OFFSET -7.75947 0.938293 5.60832
                CHANNELS 3 Zrotation Xrotation Yrotation
                JOINT rIndex2
                {
                  OFFSET -2.54057 -0.884171 1.56538
                  CHANNELS 3 Zrotation Xrotation Yrotation
                  End Site
                  {
                    OFFSET -1.62519 -0.234802 1.16502
                  }
                }
              }
              JOINT rMid1
              {
                OFFSET -8.24714 1.18213 3.41376
                CHANNELS 3 Zrotation Xrotation Yrotation
                JOINT rMid2
                {
                  OFFSET -3.10165 -0.590103 1.0647
                  CHANNELS 3 Zrotation Xrotation Yrotation
                  End Site
                  {
                    OFFSET -2.48547 -0.328903 0.83742
                  }
                }
              }
              JOINT rRing1
              {
                OFFSET -8.82822 0.546677 1.51678
                CHANNELS 3 Zrotation Xrotation Yrotation
                JOINT rRing2
                {
                  OFFSET -2.60934 -0.819778 -0.0198488
                  CHANNELS 3 Zrotation Xrotation Yrotation
                  End Site
                  {
                    OFFSET -2.33842 -0.294052 0.168128
                  }
                }
              }
              JOINT rPinky1
              {
                OFFSET -8.27202 -0.0477905 -0.4584
                CHANNELS 3 Zrotation Xrotation Yrotation
                JOINT rPinky2
                {
                  OFFSET -1.82734 -0.647385 -0.700984
                  CHANNELS 3 Zrotation Xrotation Yrotation
                  End Site
                  {
                    OFFSET -1.69225 -0.51767 -0.607171
                  }
                }
              }
            }
          }
        }
      }
      JOINT lCollar
      {
        OFFSET 2.68224 19.2634 -4.8768
        CHANNELS 3 Zrotation Xrotation Yrotation
        JOINT lShldr
        {
          OFFSET 8.77824 -1.95073 1.46304
          CHANNELS 3 Zrotation Xrotation Yrotation
          JOINT lForeArm
          {
            OFFSET 28.1742 -1.7115 0.48768
            CHANNELS 3 Zrotation Xrotation Yrotation
            JOINT lHand
            {
              OFFSET 22.5879 0.773209 7.07136
              CHANNELS 3 Zrotation Xrotation Yrotation
              JOINT lThumb1
              {
                OFFSET 1.2192 -0.487915 3.41376
                CHANNELS 3 Zrotation Xrotation Yrotation
                JOINT lThumb2
                {
                  OFFSET 3.37035 -0.52449 3.41376
                  CHANNELS 3 Zrotation Xrotation Yrotation
                  End Site
                  {
                    OFFSET 1.78271 -1.18214 1.43049
                  }
                }
              }
              JOINT lIndex1
              {
                OFFSET 7.75947 0.938293 5.60832
                CHANNELS 3 Zrotation Xrotation Yrotation
                JOINT lIndex2
                {
                  OFFSET 2.54057 -0.884171 1.56538
                  CHANNELS 3 Zrotation Xrotation Yrotation
                  End Site
                  {
                    OFFSET 1.62519 -0.234802 1.16502
                  }
                }
              }
              JOINT lMid1
              {
                OFFSET 8.24714 1.18213 3.41376
                CHANNELS 3 Zrotation Xrotation Yrotation
                JOINT lMid2
                {
                  OFFSET 3.10165 -0.590103 1.0647
                  CHANNELS 3 Zrotation Xrotation Yrotation
                  End Site
                  {
                    OFFSET 2.48547 -0.328903 0.83742
                  }
                }
              }
              JOINT lRing1
              {
                OFFSET 8.82822 0.546677 1.51678
                CHANNELS 3 Zrotation Xrotation Yrotation
                JOINT lRing2
                {
                  OFFSET 2.60934 -0.819778 -0.0198488
                  CHANNELS 3 Zrotation Xrotation Yrotation
                  End Site
                  {
                    OFFSET 2.33842 -0.294052 0.168128
                  }
                }
              }
              JOINT lPinky1
              {
                OFFSET 8.27202 -0.0477905 -0.4584
                CHANNELS 3 Zrotation Xrotation Yrotation
                JOINT lPinky2
                {
                  OFFSET 1.82734 -0.647385 -0.700984
                  CHANNELS 3 Zrotation Xrotation Yrotation
                  End Site
                  {
                    OFFSET 1.69225 -0.51767 -0.607171
                  }
                }
              }
            }
          }
        }
      }
    }
  }
  JOINT rButtock
  {
    OFFSET -8.77824 4.35084 1.2192
    CHANNELS 3 Zrotation Xrotation Yrotation
    JOINT rThigh
    {
      OFFSET 0 -1.70687 -2.19456
      CHANNELS 3 Zrotation Xrotation Yrotation
      JOINT rShin
      {
        OFFSET 0 -36.8199 0.73152
        CHANNELS 3 Zrotation Xrotation Yrotation
        JOINT rFoot
        {
          OFFSET 0.73152 -45.1104 -5.12064
          CHANNELS 3 Zrotation Xrotation Yrotation
          End Site
          {
            OFFSET -1.1221 -3.69964 12.103
          }
        }
      }
    }
  }
  JOINT lButtock
  {
    OFFSET 8.77824 4.35084 1.2192
    CHANNELS 3 Zrotation Xrotation Yrotation
    JOINT lThigh
    {
      OFFSET 0 -1.70687 -2.19456
      CHANNELS 3 Zrotation Xrotation Yrotation
      JOINT lShin
      {
        OFFSET 0 -36.8199 0.73152
        CHANNELS 3 Zrotation Xrotation Yrotation
        JOINT lFoot
        {
          OFFSET -0.73152 -45.1104 -5.12064
          CHANNELS 3 Zrotation Xrotation Yrotation
          End Site
          {
            OFFSET 1.1221 -3.69964 12.103
          }
        }
      }
    }
  }
}
MOTION
Frames:	5
Frame Time:	0.00833333
-58.7544 88.3833 11.1072 12.4402 -63.4536 -6.1975 -3.27145 4.52208 8.85792 -0.882865 -6.22213 2.46392 -5.2738 1.72457 -0.566464 13.1463 -33.2383 3.87119 -0.0 0.0 0.0 -0.0 0.0 0.0 1.30008e-13 1.39229e-13 -8.92419e-14 61.6956 -60.939 121.902 -7.5498 -2.77983 13.2807 -0.00172297 -0.843848 -0.118633 -1.1101e-09 -1.29733e-09 6.13808e-10 -1.91922e-09 -2.24724e-09 1.06187e-09 -1.1101e-09 -1.29732e-09 6.13796e-10 7.73091 5.47488 0.417314 -1.11011e-09 -1.29733e-09 6.13807e-10 2.90554 0.965183 0.102902 -1.11009e-09 -1.29733e-09 6.13809e-10 10.2786 0.731801 0.0259123 -1.11011e-09 -1.29733e-09 6.1382e-10 2.22167 -0.733487 -0.20892 1.29973e-13 1.39235e-13 -8.94566e-14 -45.6208 -65.4575 -115.832 10.6199 -4.52676 -18.9691 0.916075 -26.1126 3.95001 2.40836e-09 -1.21545e-09 -1.30481e-09 4.18035e-09 -2.11308e-09 -2.20965e-09 2.40836e-09 -1.21545e-09 -1.3048e-09 -7.73091 5.47488 -0.417314 2.40836e-09 -1.21545e-09 -1.30481e-09 -2.90554 0.965183 -0.102902 2.40835e-09 -1.21545e-09 -1.30481e-09 -10.2786 0.731801 -0.0259123 2.40836e-09 -1.21545e-09 -1.30481e-09 -2.22167 -0.733487 0.20892 -2.03217e-16 0.0 -3.88251e-19 -6.29744 -3.64309 19.0074 -0.0706619 27.5535 0.694918 -5.70347 -9.67806 -21.9214 2.03217e-16 0.0 3.88251e-19 -1.67449 -27.5881 -14.5667 0.190248 29.0173 -0.386887 0.282733 13.2761 1.48508
-58.8243 87.6161 11.5075 11.5431 -63.821 -5.6251 -2.41595 4.6189 9.23126 -1.07603 -6.01117 2.57489 -5.08798 2.68184 -0.599826 12.9383 -33.0763 3.6241 -0.0 0.0 0.0 -0.0 0.0 0.0 -3.38189e-14 -2.16323e-13 -3.77821e-13 61.4408 -60.2825 121.37 -7.50337 -2.75638 13.1964 -0.00172912 -0.722582 -0.101593 -1.3691e-09 -5.02658e-10 8.33977e-10 -2.36524e-09 -8.72716e-10 1.44124e-09 -1.3691e-09 -5.02656e-10 8.33971e-10 7.73091 5.47488 0.417314 -1.3691e-09 -5.02658e-10 8.33979e-10 2.90554 0.965183 0.102902 -1.36909e-09 -5.02658e-10 8.33979e-10 10.2786 0.731801 0.0259123 -1.3691e-09 -5.02659e-10 8.33986e-10 2.22167 -0.733487 -0.20892 -3.38167e-14 -2.16318e-13 -3.78054e-13 -44.5505 -65.8893 -114.582 10.7304 -4.59699 -19.1792 0.950793 -26.5614 4.02863 1.13754e-09 2.23402e-11 -1.30575e-09 1.99173e-09 3.10794e-11 -2.23947e-09 1.13753e-09 2.23415e-11 -1.30574e-09 -7.73091 5.47488 -0.417314 1.13754e-09 2.23415e-11 -1.30574e-09 -2.90554 0.965183 -0.102902 1.13753e-09 2.23419e-11 -1.30574e-09 -10.2786 0.731801 -0.0259123 1.13754e-09 2.2343e-11 -1.30574e-09 -2.22167 -0.733487 0.20892 -2.03217e-16 0.0 -3.88251e-19 -6.19428 -3.03129 18.9436 -0.0693205 27.6403 0.718245 -6.24248 -11.5827 -21.2649 2.03217e-16 0.0 3.88251e-19 -1.34691 -27.3327 -13.7122 0.193237 29.4971 -0.410533 0.388108 11.1258 1.06052
-58.8846 86.7542 11.8919 10.6575 -64.2568 -5.1348 -1.59463 4.78042 9.56652 -1.25911 -5.82013 2.67541 -4.96165 3.60572 -0.627664 12.8071 -32.8078 3.41335 -0.0 0.0 0.0 -0.0 0.0 0.0 -1.96856e-13 -5.72854e-13 -6.333e-13 60.833 -59.7023 120.532 -7.48419 -2.74692 13.1613 -0.0014433 -0.758258 -0.106596 -1.65301e-09 2.50469e-10 9.82862e-10 -2.85441e-09 4.30073e-10 1.69748e-09 -1.65301e-09 2.50471e-10 9.82862e-10 7.73091 5.47488 0.417314 -1.65301e-09 2.50469e-10 9.82867e-10 2.90554 0.965183 0.102902 -1.653e-09 2.5047e-10 9.82866e-10 10.2786 0.731801 0.0259123 -1.65302e-09 2.50469e-10 9.82869e-10 2.22167 -0.733487 -0.20892 -1.9682e-13 -5.72851e-13 -6.33546e-13 -43.186 -66.3349 -113.047 10.8603 -4.68042 -19.426 0.982466 -26.9572 4.09866 -1.55286e-10 1.19932e-09 -1.30189e-09 -2.35488e-10 2.0702e-09 -2.26119e-09 -1.55287e-10 1.19932e-09 -1.30188e-09 -7.73091 5.47488 -0.417314 -1.55284e-10 1.19932e-09 -1.30189e-09 -2.90554 0.965183 -0.102902 -1.55294e-10 1.19932e-09 -1.30189e-09 -10.2786 0.731801 -0.0259123 -1.55281e-10 1.19932e-09 -1.30189e-09 -2.22167 -0.733487 0.20892 -2.03217e-16 0.0 -3.88251e-19 -6.09544 -2.37038 18.9208 -0.0683462 27.7354 0.740211 -6.7404 -13.4811 -20.6607 2.03217e-16 0.0 3.88251e-19 -0.975498 -26.9424 -12.8178 0.19744 30.0844 -0.4384 0.470155 8.56917 0.572249
-58.9604 85.9731 12.3044 9.807 -64.6485 -4.7762 -1.01078 5.05758 9.80039 -1.35246 -5.69114 2.74812 -4.94427 4.27516 -0.61471 12.9035 -32.2352 3.352 -0.0 0.0 0.0 -0.0 0.0 0.0 -2.88592e-13 -7.70441e-13 -6.93311e-13 59.7765 -59.2603 119.31 -7.49209 -2.75112 13.1753 -0.00110531 -0.94927 -0.133424 -1.81122e-09 5.32205e-10 7.65305e-10 -3.12699e-09 9.17568e-10 1.32112e-09 -1.81121e-09 5.32207e-10 7.65308e-10 7.73091 5.47488 0.417314 -1.81121e-09 5.32206e-10 7.65311e-10 2.90554 0.965183 0.102902 -1.8112e-09 5.32206e-10 7.6531e-10 10.2786 0.731801 0.0259123 -1.81122e-09 5.32207e-10 7.65311e-10 2.22167 -0.733487 -0.20892 -2.88549e-13 -7.70438e-13 -6.9356e-13 -41.7758 -66.7305 -111.472 11.0103 -4.77841 -19.7103 1.0012 -27.1845 4.13922 -1.06556e-09 1.67093e-09 -1.2479e-09 -1.80689e-09 2.88795e-09 -2.18621e-09 -1.06556e-09 1.67093e-09 -1.24789e-09 -7.73091 5.47488 -0.417314 -1.06556e-09 1.67093e-09 -1.2479e-09 -2.90554 0.965183 -0.102902 -1.06557e-09 1.67093e-09 -1.2479e-09 -10.2786 0.731801 -0.0259123 -1.06555e-09 1.67094e-09 -1.2479e-09 -2.22167 -0.733487 0.20892 -2.03217e-16 0.0 -3.88251e-19 -6.05137 -1.61213 18.9888 -0.066397 27.7875 0.761325 -7.21063 -15.2143 -20.2837 2.03217e-16 0.0 3.88251e-19 -0.695039 -26.5663 -11.925 0.20308 30.7515 -0.466175 0.506172 6.12154 0.115881
-59.0763 85.2741 12.6999 8.944 -65.0355 -4.4926 -0.656056 5.53506 9.92351 -1.32371 -5.65286 2.79305 -5.09918 4.57874 -0.527038 13.3768 -31.1456 3.54429 -0.0 0.0 0.0 -0.0 0.0 0.0 -2.68995e-13 -7.23406e-13 -4.12709e-13 58.1214 -58.9651 117.593 -7.52979 -2.77009 13.2439 -0.00146124 -1.37267 -0.192928 -1.83344e-09 -4.82062e-11 -1.741e-10 -3.16561e-09 -8.62224e-11 -3.0152e-10 -1.83344e-09 -4.82058e-11 -1.74096e-10 7.73091 5.47488 0.417314 -1.83344e-09 -4.82067e-11 -1.74094e-10 2.90554 0.965183 0.102902 -1.83343e-09 -4.82064e-11 -1.74095e-10 10.2786 0.731801 0.0259123 -1.83345e-09 -4.82054e-11 -1.74092e-10 2.22167 -0.733487 -0.20892 -2.6899e-13 -7.23405e-13 -4.12939e-13 -40.4233 -67.0697 -109.97 11.1663 -4.88019 -20.0091 0.994777 -27.1028 4.12478 -1.39191e-09 9.24658e-10 -1.13748e-09 -2.37783e-09 1.59688e-09 -1.99751e-09 -1.39191e-09 9.24656e-10 -1.13747e-09 -7.73091 5.47488 -0.417314 -1.39191e-09 9.24658e-10 -1.13748e-09 -2.90554 0.965183 -0.102902 -1.39191e-09 9.24658e-10 -1.13747e-09 -10.2786 0.731801 -0.0259123 -1.3919e-09 9.2466e-10 -1.13748e-09 -2.22167 -0.733487 0.20892 -2.03217e-16 0.0 -3.88251e-19 -6.02552 -0.625535 19.224 -0.0622633 27.7132 0.779923 -7.68088 -16.7287 -20.1931 2.03217e-16 0.0 3.88251e-19 -0.432148 -26.1512 -10.976 0.210647 31.5343 -0.49466 0.50151 3.72001 -0.336737
